# xmcd CD database file
#
# Track frame offsets:
#	150
#	19934
#	52269
#	71697
#	88954
#	114543
#	141568
#	161568
#	178635
#	206309
#	223509
#	248391
#
# Disc length: 3461 seconds
#
# Revision: 1
# Processed by: cddbd v1.5PL3 Copyright (c) Steve Scherf et al.
# Submitted via: CDex 1.50
#
DISCID=b10d830c
DTITLE=Jean Michel Jarre - Metamorphoses
DYEAR=200
DGENRE=New Age
TTITLE0=Je Me Souviens
TTITLE1=Cest La Vie
TTITLE2=Rendezvouz A Paris
TTITLE3=Hey Gagarin
TTITLE4=Millions Of Stars
TTITLE5=Tout Est Bleu
TTITLE6=Love Love Love
TTITLE7=Bells
TTITLE8=Miss-Moon
TTITLE9=Give Me A Sign
TTITLE10=Gloria Lonely Boy
TTITLE11=Silhouette
EXTD=YEAR: 200
EXTT0=
EXTT1=
EXTT2=
EXTT3=
EXTT4=
EXTT5=
EXTT6=
EXTT7=
EXTT8=
EXTT9=
EXTT10=
EXTT11=
PLAYORDER=
